####
#
# OBJ File Generated by Meshlab
#
####
# Object hand.obj
#
# Vertices: 102
# Faces: 200
#
####
vn 4.113665 0.593180 3.493132
v 0.016735 0.090129 0.064432
vn 5.162258 -0.546572 2.718759
v 0.017134 -0.089271 0.063614
vn 6.164151 -0.058845 0.613372
v 0.031590 -0.000559 0.006214
vn -5.039938 -2.932170 -0.455821
v -0.017054 -0.095525 0.022121
vn -5.334590 -2.472968 0.330045
v -0.017510 -0.097908 0.051666
vn -5.481724 -0.326468 -1.840756
v -0.031598 -0.001987 0.001153
vn -5.621729 0.789087 -1.727491
v -0.025981 0.075770 -0.005082
vn -6.162533 -0.067835 0.572152
v -0.031636 -0.000579 0.005973
vn 4.931406 -3.034954 -0.390134
v 0.017033 -0.096802 0.030322
vn 5.477704 -0.308103 -1.811517
v 0.031616 -0.001861 0.001180
vn 5.631454 -2.150834 0.400679
v 0.017585 -0.097407 0.051985
vn 5.551251 1.569529 1.712830
v 0.018556 0.094602 0.056617
vn -5.326864 -2.570693 -0.906998
v -0.016804 -0.091906 0.006295
vn -5.447256 -1.930907 -1.743046
v -0.016812 -0.087533 -0.001206
vn 3.348236 -4.635087 0.177908
v 0.016230 -0.099538 0.051584
vn -0.002218 -5.982425 -0.049159
v -0.000041 -0.103990 0.005691
vn -0.007329 -5.473362 -1.259752
v -0.000017 -0.103743 -0.009199
vn -3.149767 -3.915616 -2.565217
v -0.003617 -0.101158 -0.012610
vn -3.068062 -4.969016 -1.109051
v -0.003430 -0.102598 -0.008964
vn -6.200994 0.798950 0.262592
v -0.025270 0.082065 0.005197
vn -4.726407 0.267023 -3.023704
v -0.028011 0.041784 -0.006396
vn 0.028448 1.926569 5.590840
v -0.000113 0.092808 0.065962
vn -1.097830 3.194903 4.669146
v -0.012567 0.093712 0.065168
vn -1.819291 1.163968 5.324390
v -0.014422 0.091276 0.065690
vn -5.081236 -1.199099 2.377660
v -0.017255 -0.090700 0.063082
vn -3.090922 -0.856229 4.732774
v -0.015472 -0.090706 0.065190
vn -4.428153 0.715087 3.427665
v -0.016767 0.090252 0.064332
vn 5.271816 -2.538895 -0.960290
v 0.016956 -0.091603 0.005563
vn 5.562751 -1.770478 1.463835
v 0.017607 -0.093848 0.058448
vn 1.315757 -5.213957 2.009699
v 0.012506 -0.100188 0.056894
vn 1.891250 5.028998 1.408917
v 0.015551 0.100200 0.054673
vn 4.546309 3.450632 0.342636
v 0.019269 0.098494 0.044942
vn 1.545253 5.786596 -0.133211
v 0.016218 0.100285 0.045870
vn 1.926658 0.260141 -5.668491
v 0.001917 -0.045520 -0.025659
vn 4.767933 0.253264 -3.002290
v 0.028015 0.042042 -0.006350
vn 4.097592 -0.585114 -4.403766
v 0.003810 -0.082966 -0.024449
vn 6.120370 0.986934 0.701751
v 0.020671 0.093692 0.043308
vn 6.215631 0.736923 0.247509
v 0.025448 0.081181 0.003501
vn -3.644396 -0.776163 -4.585655
v -0.003637 -0.083586 -0.024606
vn -5.447178 -1.203924 -2.653192
v -0.016533 -0.082236 -0.005118
vn -1.944782 -5.020288 1.658078
v -0.014017 -0.100091 0.056027
vn -3.277044 -4.928584 -0.072436
v -0.016013 -0.099629 0.049301
vn -3.485545 -1.948173 -4.186288
v -0.003215 -0.087766 -0.023884
vn -0.906971 -2.058928 5.170220
v -0.012988 -0.092496 0.065712
vn -0.034724 -1.941511 5.581051
v -0.000506 -0.092945 0.065953
vn 1.218915 2.079498 4.860018
v 0.013540 0.092672 0.065688
vn 1.116607 -1.337181 5.632580
v 0.013425 -0.091927 0.065731
vn -5.434662 2.190708 0.904349
v -0.019229 0.097261 0.050588
vn 5.404011 -1.565773 -2.195817
v 0.016558 -0.085132 -0.003873
vn 3.046893 -5.050380 -0.904996
v 0.003495 -0.102716 -0.008029
vn 4.995213 2.728284 -0.891413
v 0.023869 0.090401 0.004368
vn 5.164136 2.780159 -0.063548
v 0.022708 0.093736 0.014340
vn 5.661168 0.755446 -1.711640
v 0.026034 0.075298 -0.005031
vn 3.609566 0.691214 -4.548836
v 0.024817 0.074378 -0.007156
vn -1.472142 0.236708 -5.659132
v -0.001500 -0.045870 -0.025925
vn -0.023700 1.861995 -5.907047
v -0.000834 0.080260 -0.007322
vn 1.693838 1.420513 -5.501626
v 0.022959 0.077901 -0.007399
vn -1.815038 1.893490 -5.084186
v -0.022761 0.080174 -0.006910
vn -0.004369 -3.560127 -3.638588
v 0.000032 -0.099451 -0.017161
vn -4.409086 -3.511663 1.405228
v -0.016632 -0.098554 0.054734
vn 3.115464 -3.946818 -2.509401
v 0.003602 -0.101195 -0.012628
vn -0.059761 4.517947 4.235922
v -0.001617 0.097471 0.062307
vn 3.321910 -1.699964 3.855491
v 0.015718 -0.091780 0.064913
vn -5.833945 1.056668 1.623562
v -0.018449 0.092016 0.058393
vn -0.534678 -2.191684 -5.193932
v -0.000627 -0.087975 -0.024962
vn 3.125496 -2.046692 -4.232395
v 0.003076 -0.087973 -0.023979
vn 2.257841 5.262319 -0.657990
v 0.019802 0.097011 0.020914
vn 0.727199 5.249522 2.307750
v 0.009942 0.100035 0.058341
vn 4.352654 3.661314 1.580340
v 0.017129 0.099067 0.054305
vn -0.001498 5.865027 -2.048413
v -0.000314 0.094615 0.007575
vn -0.018112 6.207044 -0.876489
v -0.000016 0.098496 0.027082
vn -0.019012 3.696730 -4.944917
v -0.000337 0.086562 -0.004163
vn 2.150777 3.799174 -3.530035
v 0.022314 0.088250 -0.001933
vn 1.576365 2.775758 -4.963234
v 0.022377 0.083355 -0.005526
vn -1.719872 4.531099 -3.071865
v -0.021325 0.090927 0.000980
vn -2.105697 3.076790 -4.268806
v -0.022733 0.085434 -0.004120
vn -4.732071 2.314456 -1.963200
v -0.024495 0.085892 -0.001833
vn 1.793609 -0.744260 -5.676156
v 0.001843 -0.084002 -0.025525
vn -3.329342 1.029890 -4.453370
v -0.024650 0.076668 -0.006932
vn 1.574144 -3.688959 4.225684
v 0.013139 -0.094063 0.064683
vn -0.617190 -5.278951 2.444557
v -0.009324 -0.099983 0.058489
vn -1.869922 5.594627 -0.668099
v -0.019067 0.097697 0.024627
vn -0.300213 5.541971 1.869211
v -0.004494 0.100426 0.058119
vn -1.550794 5.097739 1.671169
v -0.014623 0.100168 0.055735
vn 3.366365 -4.227679 1.408617
v 0.015805 -0.099416 0.054970
vn 2.339584 4.961487 -1.339364
v 0.021343 0.094333 0.008942
vn 0.001998 5.075753 -3.588873
v -0.000173 0.090995 0.000577
vn 1.939545 4.777290 -2.602795
v 0.021483 0.091795 0.002684
vn 4.232801 1.905534 -3.453721
v 0.024515 0.081703 -0.005051
vn 5.140152 2.133749 -1.652255
v 0.024729 0.085740 -0.001232
vn -1.846840 5.368846 -1.426227
v -0.020658 0.094668 0.009538
vn 0.092041 -5.485097 2.245054
v 0.001191 -0.100301 0.058623
vn 0.016224 -4.366170 4.423753
v 0.000470 -0.096656 0.063078
vn 3.222397 2.804441 3.703960
v 0.015397 0.092906 0.064556
vn -0.918792 -0.405846 -5.899210
v -0.000868 -0.082548 -0.025870
vn -4.462942 3.114072 -1.073546
v -0.023556 0.091166 0.004608
vn -2.662695 -3.302910 3.777745
v -0.014617 -0.093442 0.064500
vn -4.921899 3.044417 -0.325004
v -0.023026 0.092897 0.009877
vn -4.848047 3.077457 -0.057329
v -0.021822 0.095442 0.021756
vn -2.697430 4.770585 -0.050614
v -0.018193 0.099518 0.043814
vn -3.722111 2.869132 3.266932
v -0.016046 0.093209 0.063617
vn -3.701893 4.057805 1.427983
v -0.016995 0.099363 0.054115
# 102 vertices, 0 vertices normals

f 1//1 2//2 3//3
f 4//4 5//5 6//6
f 7//7 6//6 8//8
f 9//9 10//10 11//11
f 10//10 3//3 11//11
f 12//12 1//1 3//3
f 13//13 6//6 14//14
f 8//8 6//6 5//5
f 4//4 6//6 13//13
f 15//15 16//16 17//17
f 18//18 19//19 13//13
f 20//20 7//7 8//8
f 21//21 6//6 7//7
f 22//22 23//23 24//24
f 25//25 26//26 27//27
f 28//28 10//10 9//9
f 2//2 29//29 3//3
f 29//29 11//11 3//3
f 30//30 16//16 15//15
f 31//31 32//32 33//33
f 34//34 35//35 36//36
f 37//37 3//3 38//38
f 6//6 39//39 40//40
f 25//25 8//8 5//5
f 41//41 42//42 16//16
f 18//18 14//14 43//43
f 22//22 24//24 44//44
f 44//44 45//45 22//22
f 46//46 22//22 45//45
f 45//45 47//47 46//46
f 20//20 8//8 48//48
f 9//9 11//11 15//15
f 36//36 10//10 49//49
f 50//50 28//28 9//9
f 10//10 36//36 35//35
f 12//12 37//37 32//32
f 37//37 12//12 3//3
f 37//37 38//38 51//51
f 37//37 52//52 32//32
f 52//52 37//37 51//51
f 10//10 35//35 53//53
f 10//10 53//53 38//38
f 10//10 38//38 3//3
f 54//54 35//35 34//34
f 55//55 56//56 57//57
f 56//56 55//55 58//58
f 57//57 54//54 34//34
f 39//39 6//6 21//21
f 59//59 18//18 43//43
f 40//40 39//39 43//43
f 14//14 40//40 43//43
f 14//14 6//6 40//40
f 60//60 25//25 5//5
f 59//59 61//61 17//17
f 42//42 60//60 5//5
f 16//16 42//42 17//17
f 62//62 22//22 46//46
f 22//22 62//62 23//23
f 1//1 46//46 63//63
f 47//47 63//63 46//46
f 25//25 64//64 8//8
f 64//64 25//25 27//27
f 64//64 48//48 8//8
f 65//65 59//59 43//43
f 66//66 36//36 49//49
f 63//63 2//2 1//1
f 33//33 32//32 67//67
f 68//68 62//62 46//46
f 32//32 69//69 12//12
f 70//70 71//71 67//67
f 53//53 35//35 54//54
f 72//72 73//73 74//74
f 75//75 76//76 77//77
f 78//78 55//55 34//34
f 55//55 79//79 58//58
f 4//4 42//42 5//5
f 50//50 15//15 17//17
f 59//59 17//17 18//18
f 7//7 20//20 77//77
f 24//24 26//26 44//44
f 27//27 26//26 24//24
f 45//45 80//80 47//47
f 41//41 16//16 81//81
f 82//82 71//71 70//70
f 62//62 83//83 23//23
f 33//33 84//84 83//83
f 49//49 28//28 61//61
f 61//61 28//28 50//50
f 61//61 50//50 17//17
f 63//63 85//85 29//29
f 85//85 30//30 15//15
f 80//80 85//85 63//63
f 85//85 80//80 30//30
f 9//9 15//15 50//50
f 85//85 15//15 11//11
f 11//11 29//29 85//85
f 83//83 62//62 68//68
f 34//34 36//36 78//78
f 70//70 67//67 86//86
f 71//71 33//33 67//67
f 58//58 76//76 72//72
f 73//73 87//87 88//88
f 72//72 74//74 56//56
f 56//56 74//74 57//57
f 34//34 55//55 57//57
f 21//21 79//79 55//55
f 21//21 7//7 79//79
f 89//89 73//73 90//90
f 39//39 21//21 55//55
f 91//91 82//82 70//70
f 84//84 23//23 83//83
f 28//28 49//49 10//10
f 92//92 80//80 93//93
f 31//31 33//33 68//68
f 68//68 33//33 83//83
f 51//51 86//86 52//52
f 69//69 32//32 31//31
f 46//46 94//94 68//68
f 94//94 31//31 68//68
f 94//94 12//12 69//69
f 76//76 75//75 72//72
f 90//90 53//53 89//89
f 86//86 51//51 88//88
f 75//75 70//70 87//87
f 87//87 70//70 88//88
f 95//95 55//55 78//78
f 39//39 55//55 95//95
f 14//14 18//18 13//13
f 42//42 41//41 60//60
f 19//19 17//17 42//42
f 19//19 4//4 13//13
f 45//45 93//93 80//80
f 92//92 93//93 81//81
f 16//16 30//30 92//92
f 92//92 81//81 16//16
f 96//96 77//77 20//20
f 66//66 59//59 65//65
f 65//65 78//78 66//66
f 59//59 66//66 61//61
f 49//49 61//61 66//66
f 2//2 63//63 29//29
f 80//80 63//63 47//47
f 80//80 92//92 30//30
f 78//78 36//36 66//66
f 94//94 69//69 31//31
f 94//94 46//46 1//1
f 12//12 94//94 1//1
f 70//70 86//86 88//88
f 67//67 52//52 86//86
f 52//52 67//67 32//32
f 57//57 89//89 54//54
f 53//53 90//90 38//38
f 90//90 51//51 38//38
f 75//75 87//87 72//72
f 72//72 87//87 73//73
f 56//56 58//58 72//72
f 42//42 4//4 19//19
f 19//19 18//18 17//17
f 97//97 81//81 44//44
f 81//81 93//93 44//44
f 41//41 97//97 60//60
f 26//26 97//97 44//44
f 98//98 99//99 91//91
f 100//100 33//33 71//71
f 84//84 33//33 100//100
f 96//96 75//75 77//77
f 95//95 78//78 65//65
f 73//73 89//89 74//74
f 53//53 54//54 89//89
f 73//73 88//88 51//51
f 90//90 73//73 51//51
f 41//41 81//81 97//97
f 44//44 93//93 45//45
f 25//25 97//97 26//26
f 101//101 48//48 64//64
f 64//64 27//27 101//101
f 102//102 48//48 101//101
f 96//96 98//98 91//91
f 48//48 99//99 20//20
f 99//99 98//98 20//20
f 98//98 96//96 20//20
f 96//96 91//91 75//75
f 84//84 101//101 23//23
f 27//27 24//24 101//101
f 89//89 57//57 74//74
f 77//77 76//76 79//79
f 79//79 76//76 58//58
f 79//79 7//7 77//77
f 102//102 84//84 100//100
f 91//91 99//99 82//82
f 48//48 100//100 99//99
f 100//100 48//48 102//102
f 75//75 91//91 70//70
f 84//84 102//102 101//101
f 24//24 23//23 101//101
f 43//43 95//95 65//65
f 25//25 60//60 97//97
f 82//82 100//100 71//71
f 43//43 39//39 95//95
f 100//100 82//82 99//99
# 200 faces, 0 coords texture

# End of File
