####
#
# OBJ File Generated by Meshlab
#
####
# Object link7.obj
#
# Vertices: 102
# Faces: 200
#
####
vn -0.099456 0.908288 6.140993
v -0.000489 0.030825 0.106800
vn 1.033349 -0.225823 6.089070
v 0.031087 -0.001497 0.106799
vn 0.502378 0.504884 6.191347
v 0.022050 0.022362 0.106818
vn -0.056350 -3.121781 -2.955451
v -0.001018 -0.044030 0.052071
vn -0.312818 -4.981507 2.437713
v -0.002608 -0.043852 0.096674
vn -2.516495 -5.072227 -0.228140
v -0.035310 -0.040737 0.084614
vn -1.069537 1.566338 5.619564
v -0.014643 0.026963 0.106821
vn -1.492040 1.344303 5.545451
v -0.022532 0.020709 0.106800
vn 5.596464 -1.460848 0.709980
v 0.080879 0.037306 0.090443
vn 4.507016 -2.262043 2.481337
v 0.079071 0.035077 0.094492
vn 3.714097 -3.234881 2.393058
v 0.033384 -0.028652 0.096679
vn 5.607101 -2.166290 -0.303077
v 0.080795 0.036670 0.082324
vn 2.438007 -2.017241 -2.988487
v 0.034635 -0.027228 0.052124
vn 1.942644 -2.406943 -2.902037
v 0.027746 -0.034283 0.052052
vn 2.168746 -0.361240 -5.373395
v 0.043768 -0.003468 0.052000
vn 1.715988 0.461885 -5.713592
v 0.042535 0.012075 0.052002
vn 3.963964 0.253931 -3.920424
v 0.079328 0.037021 0.076647
vn 3.255762 2.917110 4.250486
v 0.066782 0.054021 0.094387
vn 3.627406 3.953881 2.826031
v 0.055083 0.067465 0.092770
vn 2.291276 2.765890 4.762985
v 0.049938 0.069712 0.094904
vn -2.041893 -0.249487 5.479990
v -0.030755 -0.003739 0.106804
vn -1.889503 0.731617 5.520604
v -0.028507 0.011434 0.106802
vn 2.641912 -0.319531 5.046352
v 0.077637 0.035709 0.095991
vn 1.536177 -1.264805 5.543462
v 0.024465 -0.018590 0.106837
vn 1.072935 -1.727171 5.550066
v 0.015969 -0.026112 0.106800
vn 3.068850 -3.857197 2.432010
v 0.027071 -0.034540 0.096768
vn 3.515305 1.715903 4.479170
v 0.078953 0.038309 0.094703
vn 4.906407 -0.272534 3.027072
v 0.079799 0.037061 0.094108
vn 1.826126 1.789614 5.546298
v 0.062302 0.055877 0.095824
vn -0.634115 2.756066 4.765830
v 0.035256 0.077529 0.096057
vn -0.252976 2.095120 -5.459113
v -0.002946 0.043820 0.052000
vn 0.015369 3.960455 -3.610511
v 0.036947 0.079381 0.076667
vn 0.514444 1.681340 -5.727445
v 0.013710 0.042013 0.052003
vn -5.005227 -2.581085 -0.238418
v -0.040712 -0.035504 0.084714
vn -2.078100 -2.233773 -3.857031
v -0.029975 -0.032195 0.052039
vn -2.583864 -4.500896 1.971499
v -0.036427 -0.039501 0.089079
vn -3.403800 -3.366421 2.705954
v -0.037894 -0.037990 0.089726
vn -1.035711 -4.735018 3.222058
v -0.011197 -0.042299 0.096978
vn -0.696288 -3.093662 -3.241154
v -0.011782 -0.042409 0.052055
vn 0.273064 -4.927552 2.482998
v 0.002013 -0.043828 0.096804
vn 0.613990 -3.085922 -2.912167
v 0.008517 -0.043263 0.052105
vn 1.311267 -2.869444 -2.905234
v 0.018262 -0.040127 0.052101
vn 1.691930 -4.621381 2.455285
v 0.014976 -0.041228 0.096841
vn -0.342052 -1.995388 5.520728
v -0.005273 -0.030338 0.106803
vn 0.434742 -1.965847 5.538437
v 0.006889 -0.029908 0.106800
vn 2.427011 -4.334759 2.393735
v 0.021530 -0.038274 0.096689
vn 4.980279 1.808371 2.072719
v 0.080360 0.039083 0.092514
vn 4.722900 3.913291 0.783182
v 0.073059 0.050352 0.088556
vn 4.094061 3.288527 3.091056
v 0.072620 0.048678 0.093146
vn 5.451259 1.490642 0.125160
v 0.081306 0.039723 0.085821
vn 2.673637 -1.476785 -3.870674
v 0.040587 -0.017237 0.052040
vn -1.049798 2.538445 -4.651276
v -0.013272 0.041875 0.052005
vn -1.820762 2.576993 -3.113793
v -0.023201 0.037467 0.052086
vn -3.114204 3.846282 2.459384
v -0.027495 0.034204 0.096755
vn -2.069547 2.369538 -2.987905
v -0.028757 0.033326 0.052110
vn -2.310435 4.848757 2.002595
v 0.035179 0.079449 0.093829
vn 0.689079 5.180677 1.996865
v 0.038180 0.080477 0.092822
vn -1.743929 5.804224 0.394396
v 0.037544 0.080963 0.089269
vn 1.226916 1.212045 -5.748944
v 0.031151 0.031215 0.051991
vn 3.325372 2.700357 -4.324006
v 0.072974 0.047059 0.077306
vn -4.781978 1.064479 2.429002
v -0.042960 0.009041 0.096820
vn -4.606737 -2.569293 1.931042
v -0.039666 -0.036274 0.088832
vn -2.676940 -1.563491 -3.694072
v -0.037013 -0.023885 0.052071
vn -3.055495 -0.686781 -3.227361
v -0.042725 -0.010443 0.052064
vn -1.439118 -2.715734 -3.715038
v -0.021465 -0.038373 0.052004
vn -1.589035 -1.239444 5.527877
v -0.023894 -0.019354 0.106802
vn -1.024300 -1.713916 5.555045
v -0.015706 -0.026250 0.106801
vn -3.962708 -1.630411 4.385501
v -0.039005 -0.018734 0.097569
vn -1.785048 -3.774924 4.583562
v -0.019961 -0.038751 0.097167
vn 4.880336 3.748123 -0.842643
v 0.077096 0.045216 0.082172
vn 5.204847 1.302816 -1.487275
v 0.080874 0.039108 0.079979
vn 4.419955 3.643513 -2.288829
v 0.074201 0.047868 0.079664
vn 3.663367 3.537990 -3.422164
v 0.064352 0.057963 0.078304
vn 3.717801 4.658049 1.479408
v 0.046695 0.075455 0.090601
vn 2.346815 4.221527 3.333900
v 0.038972 0.079642 0.093692
vn 0.663949 4.728464 -2.387393
v 0.038152 0.080493 0.078362
vn 1.845148 5.321887 -1.030420
v 0.039656 0.081087 0.081628
vn 3.171017 4.069161 -3.113375
v 0.045758 0.075136 0.078404
vn 2.614030 3.035307 -4.690266
v 0.049675 0.069796 0.076643
vn 2.773836 2.613573 -4.920077
v 0.063813 0.055812 0.076442
vn 0.405629 3.716223 4.335698
v 0.036935 0.078982 0.095029
vn -3.620597 3.386969 2.433732
v -0.031876 0.030179 0.096708
vn -3.068209 0.613016 -2.903672
v -0.043266 0.008526 0.052097
vn -4.945675 0.220946 2.373567
v -0.043904 0.002414 0.096649
vn -3.123308 -0.071476 -2.959097
v -0.044035 -0.001620 0.052074
vn 0.959113 -4.903955 2.358999
v 0.008366 -0.043150 0.096608
vn 5.303217 -1.773172 -1.829608
v 0.080019 0.036309 0.078146
vn 3.637152 3.980323 -2.928143
v 0.054765 0.067923 0.079098
vn 4.367885 4.142507 -1.141089
v 0.065141 0.059106 0.081589
vn 4.004266 4.616528 -0.804619
v 0.054797 0.069278 0.082413
vn 4.228467 3.965266 2.003426
v 0.067045 0.056241 0.091529
vn 4.244991 4.460995 0.756391
v 0.058682 0.065670 0.088348
vn 1.578531 5.453551 0.939508
v 0.039355 0.081097 0.089372
vn -2.712421 5.318576 -1.043578
v 0.035347 0.079851 0.079387
vn -2.457921 1.933615 -2.919243
v -0.034473 0.027532 0.052108
vn -4.123246 2.753783 2.364196
v -0.036570 0.024466 0.096558
vn -2.836134 1.304230 -2.903991
v -0.040038 0.018477 0.052095
vn -4.902650 -0.594933 2.545696
v -0.043358 -0.006639 0.096822
vn 1.906560 5.486733 0.102685
v 0.039986 0.081187 0.085767
vn -4.495687 1.957808 2.443606
v -0.040085 0.017738 0.096903
vn -1.364213 5.904249 -0.298681
v 0.037848 0.081131 0.082568
vn 4.441956 1.682938 -3.385038
v 0.079836 0.038627 0.077757
# 102 vertices, 0 vertices normals

f 1//1 2//2 3//3
f 4//4 5//5 6//6
f 7//7 8//8 1//1
f 9//9 10//10 11//11
f 9//9 11//11 12//12
f 11//11 13//13 12//12
f 14//14 13//13 11//11
f 15//15 16//16 17//17
f 18//18 19//19 20//20
f 1//1 8//8 21//21
f 21//21 8//8 22//22
f 23//23 24//24 11//11
f 24//24 25//25 26//26
f 23//23 11//11 10//10
f 27//27 23//23 28//28
f 3//3 29//29 30//30
f 31//31 32//32 33//33
f 6//6 34//34 35//35
f 6//6 36//36 37//37
f 36//36 6//6 38//38
f 5//5 38//38 6//6
f 39//39 4//4 6//6
f 40//40 4//4 41//41
f 41//41 42//42 43//43
f 40//40 5//5 4//4
f 38//38 5//5 44//44
f 45//45 43//43 25//25
f 43//43 46//46 25//25
f 42//42 46//46 43//43
f 47//47 48//48 49//49
f 9//9 12//12 50//50
f 1//1 3//3 30//30
f 2//2 23//23 3//3
f 25//25 46//46 26//26
f 2//2 24//24 23//23
f 51//51 15//15 17//17
f 32//32 31//31 52//52
f 32//32 52//52 53//53
f 54//54 53//53 55//55
f 56//56 57//57 58//58
f 17//17 16//16 59//59
f 59//59 60//60 17//17
f 22//22 61//61 21//21
f 37//37 62//62 6//6
f 63//63 34//34 64//64
f 39//39 6//6 65//65
f 21//21 66//66 67//67
f 66//66 68//68 37//37
f 66//66 21//21 68//68
f 38//38 69//69 36//36
f 9//9 47//47 28//28
f 30//30 7//7 1//1
f 70//70 71//71 72//72
f 73//73 72//72 60//60
f 19//19 74//74 75//75
f 75//75 20//20 19//19
f 28//28 23//23 10//10
f 23//23 29//29 3//3
f 76//76 77//77 78//78
f 33//33 32//32 59//59
f 32//32 79//79 59//59
f 80//80 60//60 59//59
f 81//81 57//57 56//56
f 20//20 75//75 81//81
f 20//20 81//81 30//30
f 30//30 81//81 56//56
f 54//54 30//30 56//56
f 55//55 82//82 54//54
f 61//61 83//83 84//84
f 61//61 84//84 21//21
f 62//62 34//34 6//6
f 85//85 84//84 83//83
f 34//34 63//63 35//35
f 85//85 64//64 34//34
f 35//35 65//65 6//6
f 44//44 69//69 38//38
f 67//67 69//69 44//44
f 68//68 62//62 37//37
f 41//41 43//43 86//86
f 41//41 86//86 40//40
f 40//40 44//44 5//5
f 47//47 50//50 48//48
f 49//49 18//18 27//27
f 50//50 71//71 70//70
f 23//23 27//27 29//29
f 51//51 87//87 13//13
f 71//71 12//12 87//87
f 50//50 12//12 71//71
f 17//17 87//87 51//51
f 88//88 89//89 73//73
f 88//88 90//90 89//89
f 19//19 91//91 92//92
f 11//11 24//24 26//26
f 49//49 27//27 47//47
f 57//57 93//93 58//58
f 54//54 94//94 53//53
f 56//56 94//94 54//54
f 56//56 58//58 94//94
f 30//30 54//54 7//7
f 95//95 82//82 55//55
f 95//95 96//96 82//82
f 97//97 96//96 95//95
f 98//98 62//62 68//68
f 66//66 37//37 67//67
f 69//69 37//37 36//36
f 37//37 69//69 67//67
f 45//45 40//40 86//86
f 24//24 45//45 25//25
f 44//44 45//45 67//67
f 2//2 45//45 24//24
f 67//67 45//45 21//21
f 45//45 44//44 40//40
f 14//14 46//46 42//42
f 26//26 46//46 14//14
f 9//9 50//50 47//47
f 9//9 28//28 10//10
f 29//29 18//18 20//20
f 87//87 12//12 13//13
f 89//89 72//72 73//73
f 72//72 89//89 70//70
f 91//91 49//49 48//48
f 20//20 30//30 29//29
f 80//80 79//79 73//73
f 73//73 79//79 88//88
f 88//88 79//79 78//78
f 88//88 78//78 90//90
f 77//77 90//90 78//78
f 19//19 92//92 74//74
f 99//99 74//74 92//92
f 99//99 92//92 90//90
f 90//90 77//77 99//99
f 61//61 22//22 100//100
f 27//27 28//28 47//47
f 53//53 94//94 32//32
f 94//94 76//76 32//32
f 76//76 101//101 77//77
f 101//101 94//94 58//58
f 59//59 79//79 80//80
f 96//96 97//97 100//100
f 98//98 34//34 62//62
f 98//98 68//68 21//21
f 84//84 98//98 21//21
f 49//49 91//91 18//18
f 19//19 18//18 91//91
f 27//27 18//18 29//29
f 90//90 92//92 89//89
f 70//70 48//48 50//50
f 48//48 92//92 91//91
f 89//89 48//48 70//70
f 32//32 76//76 78//78
f 74//74 99//99 93//93
f 82//82 96//96 8//8
f 100//100 22//22 96//96
f 8//8 96//96 22//22
f 101//101 58//58 93//93
f 79//79 32//32 78//78
f 87//87 17//17 71//71
f 17//17 102//102 71//71
f 60//60 102//102 17//17
f 81//81 75//75 57//57
f 74//74 57//57 75//75
f 93//93 57//57 74//74
f 54//54 8//8 7//7
f 43//43 45//45 86//86
f 93//93 99//99 101//101
f 101//101 99//99 77//77
f 76//76 94//94 101//101
f 60//60 80//80 73//73
f 82//82 8//8 54//54
f 100//100 97//97 61//61
f 83//83 61//61 97//97
f 89//89 92//92 48//48
f 11//11 26//26 14//14
f 60//60 72//72 102//102
f 71//71 102//102 72//72
f 98//98 84//84 85//85
f 34//34 98//98 85//85
f 31//31 33//33 65//65
f 13//13 14//14 65//65
f 59//59 16//16 65//65
f 15//15 65//65 16//16
f 42//42 41//41 65//65
f 63//63 64//64 65//65
f 55//55 53//53 65//65
f 95//95 55//55 65//65
f 85//85 65//65 64//64
f 4//4 65//65 41//41
f 14//14 42//42 65//65
f 31//31 65//65 52//52
f 59//59 65//65 33//33
f 83//83 65//65 85//85
f 39//39 65//65 4//4
f 51//51 65//65 15//15
f 52//52 65//65 53//53
f 97//97 95//95 65//65
f 63//63 65//65 35//35
f 51//51 13//13 65//65
f 83//83 97//97 65//65
f 1//1 45//45 2//2
f 21//21 45//45 1//1
# 200 faces, 0 coords texture

# End of File
