####
#
# OBJ File Generated by Meshlab
#
####
# Object link4.obj
#
# Vertices: 152
# Faces: 300
#
####
vn 2.397329 -4.169869 3.428676
v 0.022569 -0.039557 0.093692
vn 3.704847 -3.086547 3.380032
v 0.034986 -0.029175 0.093760
vn 2.404655 -2.107961 5.202538
v 0.027804 -0.024311 0.100943
vn 4.546148 -1.414316 3.439812
v 0.043362 -0.013919 0.093861
vn 2.527000 4.971522 0.234656
v -0.027700 0.124000 0.006122
vn 0.309218 4.503689 2.783798
v -0.072380 0.123999 0.054529
vn 1.331053 5.023309 2.093722
v -0.051380 0.123999 0.045753
vn 4.839535 3.217721 -1.364083
v 0.045213 0.031664 0.001119
vn 2.263628 4.050910 -1.929860
v -0.037091 0.123998 -0.031832
vn 2.593360 4.752997 -0.640012
v -0.028172 0.124000 -0.010519
vn -0.239461 2.785368 -3.100816
v -0.086144 0.123968 -0.055207
vn 0.527175 2.830747 -3.057047
v -0.074238 0.123996 -0.054580
vn 1.961825 2.793803 4.940650
v 0.021827 0.029940 0.100929
vn 1.372486 3.004246 -2.789929
v -0.054846 0.124009 -0.047960
vn 4.403857 -4.294809 0.706291
v 0.037985 -0.036488 0.065264
vn 3.572961 -4.737329 1.732166
v 0.029027 -0.039266 0.084777
vn 2.993156 -5.314021 0.728626
v 0.026427 -0.045716 0.065717
vn 2.505865 -3.164886 -2.630811
v 0.034066 -0.043607 0.000539
vn 4.706785 -3.655922 1.665596
v 0.038719 -0.029881 0.084476
vn -1.620575 3.036083 2.661213
v -0.109295 0.124003 0.048487
vn -0.740428 3.777684 2.967870
v -0.092249 0.124000 0.054293
vn 3.050337 -0.938462 5.223826
v 0.035207 -0.010845 0.100914
vn 1.680820 -0.739882 5.950617
v 0.016564 -0.007618 0.108349
vn 5.318127 -2.539256 1.908741
v 0.043599 -0.020237 0.087046
vn 1.762798 -3.744096 -2.655215
v 0.022579 -0.050414 0.000558
vn 0.705216 -1.701207 -5.917236
v -0.076570 0.039825 -0.045276
vn 3.181794 -2.458266 -2.670376
v 0.043896 -0.033551 0.000521
vn 0.530185 2.938512 5.336827
v 0.002049 0.037664 0.100790
vn 2.177297 5.065329 1.108178
v -0.033068 0.123999 0.025663
vn 4.948950 3.662388 0.838658
v 0.041340 0.032356 0.066298
vn 4.383416 0.742961 -2.478940
v 0.054350 0.010373 0.000642
vn 5.638593 2.277903 0.757914
v 0.048737 0.020431 0.065666
vn 6.078837 0.263591 0.723847
v 0.052877 0.001839 0.064928
vn 2.189354 -5.472449 1.870629
v 0.018624 -0.044366 0.086920
vn 5.299523 -3.112635 0.724381
v 0.045445 -0.026708 0.065418
vn 1.056546 -0.878424 -6.071454
v -0.073458 0.069480 -0.050559
vn 1.470277 -0.576998 -6.040905
v -0.068970 0.088499 -0.051781
vn 3.691886 -1.684814 -2.639687
v 0.050405 -0.022856 0.000627
vn -4.535035 -0.433338 4.243882
v -0.122193 0.095532 0.036894
vn -3.262659 -1.169965 4.918744
v -0.034936 -0.012055 0.100886
vn -3.103574 -0.040949 5.290474
v -0.037027 0.002744 0.100844
vn -1.496110 1.034255 5.926084
v -0.015165 0.009109 0.108663
vn -2.250883 1.072976 5.735018
v -0.032575 0.017421 0.100906
vn -2.151168 2.806491 2.251513
v -0.120391 0.123968 0.040330
vn -2.622266 2.798172 1.674403
v -0.129090 0.123972 0.029796
vn 4.865927 0.512127 3.366611
v 0.045633 0.004568 0.092929
vn 3.260350 0.336468 5.129749
v 0.036704 0.003599 0.100953
vn 5.819099 0.395024 1.875315
v 0.048049 0.003292 0.087399
vn 1.952574 0.141420 5.914283
v 0.019177 0.001568 0.108031
vn 1.259237 -1.510040 5.914524
v 0.012946 -0.015115 0.107815
vn 0.333137 -0.735222 6.135211
v 0.003797 -0.007079 0.110758
vn 0.893028 0.257807 6.138030
v 0.008852 0.002476 0.110543
vn 1.167423 -3.005751 5.179536
v 0.013431 -0.034342 0.100980
vn -4.800591 -1.439636 3.670365
v -0.119318 0.043544 0.028643
vn -4.405362 -2.476412 3.545666
v -0.041858 -0.020943 0.089692
vn -2.693339 -2.177399 4.918725
v -0.028743 -0.023039 0.100935
vn -1.329402 -0.990510 5.956794
v -0.013322 -0.009890 0.108975
vn -0.612890 1.794783 5.911213
v -0.005765 0.018216 0.108100
vn -3.104404 2.832624 0.172123
v -0.137607 0.123998 0.003240
vn -6.144894 -0.301722 0.976720
v -0.136655 0.104576 0.007980
vn -2.944257 2.809988 1.008984
v -0.134661 0.123981 0.018168
vn 2.039216 -0.154619 -5.919264
v -0.063776 0.107927 -0.051501
vn 1.047523 -0.277420 -6.140788
v -0.072471 0.105766 -0.053865
vn -1.131502 2.830841 -2.896945
v -0.103567 0.123994 -0.051060
vn -1.792967 2.806339 -2.543707
v -0.113556 0.123983 -0.045728
vn 4.028991 -0.912310 -2.676351
v 0.054037 -0.011261 0.000538
vn 4.252695 -0.197479 -2.618593
v 0.055140 -0.002814 0.000579
vn 4.503107 1.882422 -2.254298
v 0.050232 0.023144 0.000568
vn -0.520908 -0.760163 -6.160682
v -0.087198 0.079611 -0.052439
vn -0.041032 -0.469293 -6.206685
v -0.082402 0.092920 -0.053905
vn 1.099007 -5.987395 0.723872
v 0.009153 -0.052080 0.065466
vn -4.261738 -3.840114 -2.162487
v -0.118237 0.028972 -0.018545
vn -3.740474 -3.880749 -2.943543
v -0.114342 0.028618 -0.024115
vn -3.117692 -4.711591 -1.590711
v -0.031671 -0.045195 0.000873
vn -1.676111 0.033255 5.966272
v -0.016019 0.001295 0.109144
vn 4.533437 2.034837 3.244340
v 0.042435 0.018317 0.092196
vn 5.526984 2.161584 1.667806
v 0.045046 0.018327 0.085521
vn 5.883890 -1.646084 0.774533
v 0.050572 -0.014743 0.066511
vn 5.786502 -1.055627 1.853451
v 0.047475 -0.009573 0.086165
vn 0.777498 1.749626 5.912358
v 0.007716 0.017187 0.108234
vn -0.440513 0.275465 6.165878
v -0.004346 0.002963 0.111052
vn 1.547164 1.050332 5.937072
v 0.015284 0.010014 0.108356
vn -3.713861 -3.669024 2.846644
v -0.032778 -0.033914 0.090005
vn -4.997307 -2.195573 2.839364
v -0.121548 0.037507 0.022252
vn -2.528089 -5.570478 0.784296
v -0.022347 -0.047624 0.066152
vn -1.969037 -4.587584 -2.185277
v -0.023522 -0.049968 0.000617
vn -0.764916 -4.441307 -2.420402
v -0.010681 -0.054289 0.000562
vn 0.676953 -5.871298 1.740353
v 0.005715 -0.048166 0.086143
vn -2.809133 2.889678 -1.356841
v -0.132118 0.123998 -0.024018
vn -3.052179 2.856719 -0.623343
v -0.136445 0.123998 -0.011417
vn -2.400902 2.868393 -1.985621
v -0.125335 0.124000 -0.034670
vn 1.130467 -4.077229 -2.656409
v 0.014950 -0.053137 0.000568
vn 0.313842 -4.299725 -2.549761
v 0.004073 -0.055150 0.000623
vn -0.468332 -2.169994 -5.738112
v -0.086007 0.037573 -0.044819
vn 3.439144 3.609148 3.228882
v 0.031774 0.033860 0.091676
vn -3.072671 -3.582228 -3.916293
v -0.107874 0.030200 -0.032339
vn -1.658839 -3.300843 -4.910044
v -0.095079 0.030948 -0.039772
vn -3.699191 -4.894611 0.891036
v -0.031992 -0.041577 0.066830
vn -4.450319 -4.216501 0.308725
v -0.120676 0.026656 0.003086
vn -5.849465 -0.632779 2.039930
v -0.132852 0.085270 0.017568
vn -5.792083 -1.220740 1.959970
v -0.128322 0.052420 0.015393
vn -5.414737 -0.973178 2.911064
v -0.127220 0.065177 0.023866
vn -5.387185 -0.422611 3.100015
v -0.129377 0.095919 0.027186
vn -4.711924 -0.810539 4.001334
v -0.122010 0.074521 0.033735
vn -5.388243 -1.486381 -2.706972
v -0.123590 0.042113 -0.021113
vn -5.498657 -2.369483 -1.173277
v -0.126198 0.036393 -0.009207
vn -5.922001 -1.058556 -1.617648
v -0.130713 0.061180 -0.013270
vn -5.187931 -2.457258 -2.234605
v -0.123064 0.035819 -0.017724
vn -4.454835 -4.049138 -1.069937
v -0.120488 0.027672 -0.009549
vn 4.704356 3.542789 1.851298
v 0.038328 0.029774 0.085636
vn 0.242220 1.213028 6.090931
v 0.002764 0.012288 0.109876
vn 2.919627 1.616203 5.069116
v 0.032520 0.017150 0.100966
vn -0.515970 -1.643118 5.954646
v -0.004802 -0.016582 0.108757
vn -1.517059 -3.003205 5.005696
v -0.016175 -0.033271 0.100932
vn -0.173580 -3.299580 5.120151
v -0.001304 -0.036786 0.100922
vn -0.784523 -5.048101 2.931711
v -0.006624 -0.046218 0.091497
vn -0.880620 -6.019326 0.814336
v -0.007343 -0.052124 0.066949
vn -1.332727 -0.300735 -6.071097
v -0.094255 0.106407 -0.053490
vn -6.222356 -0.382700 -0.348470
v -0.136806 0.098993 -0.003694
vn -5.873784 -1.862486 -0.464176
v -0.127978 0.039843 -0.004448
vn -6.119802 -1.184152 -0.204370
v -0.130818 0.052212 -0.001483
vn 0.108506 -1.128233 -6.128070
v -0.081036 0.056624 -0.049171
vn -3.983209 -1.997541 -4.271095
v -0.113825 0.038682 -0.032764
vn -2.868199 -2.594609 -4.814141
v -0.105099 0.035459 -0.037803
vn -1.756169 -0.622064 -5.953569
v -0.097660 0.085241 -0.051058
vn -2.667907 -0.869284 -5.559834
v -0.105004 0.073322 -0.046745
vn -2.538403 -0.329602 -5.677401
v -0.105042 0.102325 -0.049638
vn -1.731458 -1.990113 -5.567840
v -0.095913 0.038365 -0.043246
vn -5.518868 -2.034647 1.894499
v -0.125088 0.038043 0.014786
vn -4.817225 -3.411923 1.739434
v -0.121732 0.031247 0.014315
vn -6.162799 -0.665497 0.713666
v -0.135274 0.084244 0.006179
vn -6.089779 -0.982717 0.892169
v -0.132355 0.063413 0.007006
vn -5.418617 -0.988227 -2.908385
v -0.127128 0.064748 -0.023886
vn 0.783284 -4.831676 3.400825
v 0.007130 -0.045217 0.093041
vn 0.422603 -1.908821 5.924821
v 0.004104 -0.019016 0.107912
vn -1.943452 -4.832321 2.805062
v -0.017654 -0.043502 0.090834
vn -2.940339 -4.293181 2.861076
v -0.026170 -0.039015 0.090543
vn -5.704611 -0.637355 -2.429250
v -0.131688 0.087091 -0.020824
vn -5.355859 -0.289586 -3.197347
v -0.129765 0.106224 -0.027672
vn -2.975535 -1.510613 -5.229013
v -0.105467 0.042327 -0.040228
vn -5.760761 -2.027057 0.770316
v -0.127336 0.038252 0.006009
vn -5.282627 -3.145360 0.339510
v -0.124648 0.031999 0.003327
vn -4.531080 -2.302057 -3.452722
v -0.118012 0.036774 -0.027166
vn -6.072137 -0.455415 -1.393786
v -0.135538 0.097306 -0.011731
vn -6.155743 -0.816213 -0.537222
v -0.134277 0.074340 -0.004290
vn -4.689346 -1.160539 -3.945594
v -0.119562 0.054034 -0.031530
vn -4.857239 -0.703390 -3.807643
v -0.124401 0.082466 -0.032557
vn -4.469731 -0.312999 -4.316648
v -0.121956 0.102260 -0.037873
vn -3.687278 -0.604410 -4.976517
v -0.114429 0.087759 -0.042990
vn -3.773826 -1.025544 -4.846404
v -0.112995 0.060261 -0.039425
vn -5.858629 -0.233963 -2.181196
v -0.133811 0.107879 -0.019222
vn -1.445429 -1.165007 -5.927098
v -0.093721 0.053071 -0.047253
# 152 vertices, 0 vertices normals

f 1//1 2//2 3//3
f 3//3 2//2 4//4
f 5//5 6//6 7//7
f 8//8 9//9 10//10
f 11//11 5//5 12//12
f 7//7 6//6 13//13
f 5//5 8//8 10//10
f 14//14 10//10 9//9
f 15//15 16//16 17//17
f 15//15 17//17 18//18
f 15//15 19//19 16//16
f 20//20 21//21 5//5
f 22//22 3//3 4//4
f 23//23 3//3 22//22
f 2//2 24//24 4//4
f 14//14 12//12 5//5
f 14//14 5//5 10//10
f 25//25 26//26 18//18
f 27//27 18//18 26//26
f 6//6 28//28 13//13
f 29//29 30//30 5//5
f 31//31 32//32 33//33
f 16//16 34//34 17//17
f 15//15 18//18 27//27
f 15//15 35//35 19//19
f 35//35 15//15 27//27
f 1//1 16//16 2//2
f 16//16 19//19 2//2
f 27//27 26//26 36//36
f 36//36 37//37 38//38
f 39//39 40//40 41//41
f 42//42 21//21 20//20
f 20//20 43//43 42//42
f 39//39 44//44 45//45
f 20//20 41//41 43//43
f 41//41 42//42 43//43
f 19//19 24//24 2//2
f 4//4 46//46 47//47
f 46//46 4//4 48//48
f 49//49 22//22 47//47
f 22//22 49//49 23//23
f 22//22 4//4 47//47
f 3//3 23//23 50//50
f 51//51 23//23 52//52
f 53//53 1//1 3//3
f 40//40 54//54 55//55
f 56//56 57//57 40//40
f 6//6 5//5 21//21
f 6//6 21//21 28//28
f 28//28 21//21 58//58
f 59//59 60//60 61//61
f 12//12 14//14 62//62
f 63//63 62//62 37//37
f 64//64 65//65 5//5
f 5//5 11//11 64//64
f 11//11 12//12 63//63
f 37//37 62//62 66//66
f 7//7 29//29 5//5
f 14//14 31//31 67//67
f 68//68 31//31 14//14
f 32//32 8//8 30//30
f 66//66 38//38 37//37
f 69//69 70//70 36//36
f 18//18 17//17 25//25
f 17//17 34//34 71//71
f 1//1 34//34 16//16
f 35//35 27//27 38//38
f 20//20 44//44 41//41
f 20//20 5//5 44//44
f 44//44 39//39 41//41
f 72//72 73//73 74//74
f 75//75 40//40 57//57
f 48//48 76//76 46//46
f 48//48 77//77 76//76
f 24//24 35//35 78//78
f 24//24 19//19 35//35
f 79//79 24//24 78//78
f 79//79 48//48 4//4
f 79//79 78//78 33//33
f 42//42 58//58 21//21
f 80//80 13//13 28//28
f 57//57 51//51 81//81
f 52//52 49//49 82//82
f 56//56 40//40 55//55
f 83//83 56//56 55//55
f 84//84 83//83 55//55
f 85//85 86//86 87//87
f 88//88 71//71 34//34
f 5//5 61//61 45//45
f 5//5 45//45 44//44
f 59//59 61//61 5//5
f 12//12 62//62 63//63
f 89//89 90//90 5//5
f 89//89 5//5 91//91
f 26//26 92//92 93//93
f 93//93 94//94 26//26
f 26//26 25//25 92//92
f 7//7 13//13 95//95
f 30//30 8//8 5//5
f 68//68 9//9 8//8
f 68//68 14//14 9//9
f 67//67 33//33 66//66
f 31//31 68//68 32//32
f 77//77 48//48 32//32
f 32//32 48//48 33//33
f 93//93 87//87 94//94
f 96//96 97//97 86//86
f 73//73 96//96 74//74
f 96//96 86//86 74//74
f 97//97 94//94 87//87
f 70//70 11//11 63//63
f 78//78 38//38 66//66
f 71//71 25//25 17//17
f 36//36 38//38 27//27
f 98//98 83//83 99//99
f 100//100 101//101 102//102
f 103//103 104//104 39//39
f 105//105 106//106 107//107
f 108//108 106//106 105//105
f 74//74 99//99 109//109
f 109//109 72//72 74//74
f 99//99 74//74 98//98
f 40//40 75//75 41//41
f 110//110 32//32 30//30
f 79//79 4//4 24//24
f 81//81 42//42 75//75
f 52//52 80//80 111//111
f 52//52 82//82 80//80
f 49//49 47//47 112//112
f 82//82 49//49 112//112
f 13//13 80//80 82//82
f 57//57 113//113 51//51
f 23//23 49//49 52//52
f 114//114 115//115 113//113
f 114//114 116//116 115//115
f 114//114 57//57 56//56
f 114//114 113//113 57//57
f 117//117 85//85 87//87
f 62//62 14//14 67//67
f 118//118 64//64 11//11
f 119//119 60//60 59//59
f 120//120 121//121 107//107
f 91//91 5//5 65//65
f 36//36 122//122 69//69
f 93//93 92//92 71//71
f 95//95 29//29 7//7
f 29//29 95//95 110//110
f 110//110 30//30 29//29
f 80//80 28//28 58//58
f 68//68 8//8 32//32
f 67//67 31//31 33//33
f 93//93 71//71 117//117
f 123//123 124//124 96//96
f 125//125 126//126 127//127
f 97//97 87//87 86//86
f 128//128 97//97 124//124
f 35//35 38//38 78//78
f 78//78 66//66 33//33
f 84//84 129//129 130//130
f 130//130 83//83 84//84
f 100//100 131//131 132//132
f 54//54 102//102 84//84
f 103//103 102//102 104//104
f 39//39 104//104 40//40
f 103//103 100//100 102//102
f 45//45 103//103 39//39
f 132//132 101//101 100//100
f 100//100 60//60 131//131
f 133//133 105//105 107//107
f 75//75 57//57 81//81
f 41//41 75//75 42//42
f 32//32 110//110 77//77
f 48//48 79//79 33//33
f 81//81 111//111 58//58
f 58//58 42//42 81//81
f 112//112 13//13 82//82
f 95//95 13//13 112//112
f 134//134 1//1 53//53
f 134//134 34//34 1//1
f 88//88 34//34 134//134
f 50//50 53//53 3//3
f 53//53 50//50 135//135
f 115//115 116//116 134//134
f 115//115 134//134 53//53
f 117//117 136//136 85//85
f 85//85 98//98 74//74
f 74//74 86//86 85//85
f 117//117 88//88 116//116
f 114//114 137//137 136//136
f 137//137 56//56 83//83
f 137//137 114//114 56//56
f 63//63 36//36 70//70
f 60//60 100//100 61//61
f 133//133 107//107 138//138
f 139//139 89//89 91//91
f 63//63 37//37 36//36
f 122//122 36//36 26//26
f 76//76 47//47 46//46
f 112//112 47//47 76//76
f 117//117 71//71 88//88
f 87//87 93//93 117//117
f 124//124 123//123 140//140
f 97//97 96//96 124//124
f 127//127 65//65 64//64
f 25//25 71//71 92//92
f 141//141 106//106 142//142
f 120//120 106//106 141//141
f 130//130 99//99 83//83
f 60//60 119//119 131//131
f 141//141 129//129 101//101
f 55//55 54//54 84//84
f 54//54 104//104 102//102
f 105//105 143//143 108//108
f 95//95 112//112 76//76
f 76//76 110//110 95//95
f 77//77 110//110 76//76
f 51//51 52//52 81//81
f 81//81 52//52 111//111
f 135//135 50//50 51//51
f 51//51 113//113 135//135
f 135//135 115//115 53//53
f 98//98 137//137 83//83
f 137//137 85//85 136//136
f 137//137 98//98 85//85
f 116//116 136//136 117//117
f 116//116 114//114 136//136
f 61//61 103//103 45//45
f 90//90 59//59 5//5
f 90//90 119//119 59//59
f 144//144 119//119 90//90
f 145//145 131//131 119//119
f 107//107 121//121 145//145
f 120//120 107//107 106//106
f 143//143 146//146 123//123
f 146//146 143//143 105//105
f 146//146 105//105 133//133
f 147//147 133//133 138//138
f 148//148 91//91 65//65
f 139//139 91//91 148//148
f 147//147 139//139 148//148
f 125//125 64//64 118//118
f 127//127 64//64 125//125
f 126//126 149//149 127//127
f 150//150 140//140 123//123
f 147//147 148//148 149//149
f 141//141 121//121 120//120
f 142//142 99//99 130//130
f 121//121 141//141 132//132
f 132//132 141//141 101//101
f 101//101 84//84 102//102
f 101//101 129//129 84//84
f 54//54 40//40 104//104
f 103//103 61//61 100//100
f 108//108 109//109 106//106
f 109//109 108//108 72//72
f 58//58 111//111 80//80
f 23//23 51//51 50//50
f 115//115 135//135 113//113
f 116//116 88//88 134//134
f 62//62 67//67 66//66
f 89//89 151//151 90//90
f 146//146 150//150 123//123
f 138//138 139//139 147//147
f 124//124 140//140 128//128
f 128//128 140//140 152//152
f 152//152 140//140 126//126
f 147//147 150//150 146//146
f 147//147 149//149 150//150
f 147//147 146//146 133//133
f 132//132 145//145 121//121
f 109//109 142//142 106//106
f 89//89 139//139 151//151
f 97//97 128//128 94//94
f 128//128 152//152 94//94
f 150//150 149//149 126//126
f 65//65 149//149 148//148
f 65//65 127//127 149//149
f 131//131 145//145 132//132
f 107//107 144//144 138//138
f 142//142 109//109 99//99
f 11//11 70//70 69//69
f 69//69 118//118 11//11
f 72//72 143//143 73//73
f 143//143 72//72 108//108
f 126//126 140//140 150//150
f 152//152 125//125 69//69
f 130//130 141//141 142//142
f 130//130 129//129 141//141
f 151//151 144//144 90//90
f 107//107 145//145 144//144
f 138//138 144//144 151//151
f 139//139 138//138 151//151
f 126//126 125//125 152//152
f 69//69 125//125 118//118
f 144//144 145//145 119//119
f 94//94 152//152 122//122
f 94//94 122//122 26//26
f 96//96 143//143 123//123
f 143//143 96//96 73//73
f 152//152 69//69 122//122
# 300 faces, 0 coords texture

# End of File
