####
#
# OBJ File Generated by Meshlab
#
####
# Object link6.obj
#
# Vertices: 102
# Faces: 200
#
####
vn -5.164225 -1.910236 1.696434
v -0.044623 -0.016425 0.028378
vn -3.727902 -0.286094 -2.724782
v -0.048005 -0.003164 -0.014747
vn -3.524805 -1.498124 -2.683315
v -0.043919 -0.019759 -0.014745
vn -0.282547 -2.848734 -3.059619
v 0.082446 -0.051388 -0.043985
vn -1.413888 -5.118497 -1.854148
v -0.010917 -0.047107 -0.014281
vn -2.390373 -3.806493 -2.486923
v -0.024988 -0.041242 -0.014744
vn -5.588989 0.961382 1.632984
v -0.046709 0.007900 0.028003
vn -3.618467 0.843539 -2.736967
v -0.046934 0.010732 -0.014834
vn -0.585778 0.355977 -6.167017
v 0.083335 0.020392 -0.043403
vn -1.644406 -5.197786 2.462981
v -0.014513 -0.042906 0.031953
vn -0.436109 -6.121301 0.857934
v 0.052828 -0.051189 0.031754
vn 0.072801 -4.041717 2.996961
v 0.084025 -0.051216 0.044034
vn -5.383317 -0.213181 2.061653
v -0.046951 -0.001408 0.029664
vn -3.030169 -2.670100 -2.617576
v -0.035119 -0.033151 -0.014812
vn 0.726895 0.697676 6.093897
v 0.040446 0.018833 0.055529
vn 1.834202 0.965315 5.846690
v 0.099598 0.048589 0.039292
vn 1.031076 3.286338 4.459122
v 0.090083 0.071522 0.036134
vn 0.808952 -2.986213 2.998150
v 0.096210 -0.051223 0.043315
vn 0.773739 -0.480687 6.147561
v 0.043446 -0.017819 0.055119
vn -0.267048 -1.694293 5.678571
v 0.015562 -0.024034 0.056309
vn 3.554765 0.345922 5.076844
v 0.113921 0.019367 0.035382
vn 2.192997 0.225649 5.801157
v 0.103877 0.012659 0.041045
vn 1.676020 -2.746201 2.584278
v 0.112193 -0.051199 0.037192
vn -2.642433 -5.529139 0.639415
v -0.020125 -0.043108 0.021211
vn -3.480403 -4.385700 1.827993
v -0.029993 -0.035958 0.029048
vn -5.069379 2.495796 1.577793
v -0.043011 0.020195 0.027855
vn -3.240204 2.030760 -2.689104
v -0.040367 0.026331 -0.014752
vn 1.194457 0.236008 -6.044948
v 0.096678 0.014294 -0.043244
vn 0.654980 -2.855552 -3.098428
v 0.097130 -0.051200 -0.043143
vn -1.136694 -6.003100 0.796921
v -0.009168 -0.046587 0.021677
vn -4.531648 -3.407687 1.667751
v -0.037619 -0.028323 0.028484
vn 2.494251 -2.860494 1.859922
v 0.123994 -0.051197 0.025458
vn 4.725532 0.288943 3.992290
v 0.121453 0.018448 0.028662
vn 2.310584 5.637206 -0.366716
v 0.108684 0.074084 -0.011412
vn 0.390661 5.831224 1.474711
v 0.078251 0.079509 0.024287
vn 1.873497 5.449555 1.626095
v 0.100013 0.075251 0.024123
vn 4.075202 4.535639 0.492553
v 0.118023 0.068405 0.008846
vn 5.473972 2.513663 -0.065928
v 0.126265 0.058419 -0.000245
vn 4.391550 4.286993 -0.378204
v 0.120245 0.066297 -0.006879
vn -1.571873 5.580427 -1.537595
v 0.059885 0.080214 -0.015544
vn -1.560652 5.886422 -0.052851
v 0.057760 0.081278 0.000354
vn 0.253699 6.178813 -0.296594
v 0.067158 0.081681 -0.007441
vn 0.350009 5.906253 -1.350192
v 0.077314 0.079608 -0.023509
vn 2.921039 -2.843671 1.062851
v 0.129336 -0.051197 0.015630
vn -3.635240 3.264124 3.701465
v -0.031455 0.029034 0.035793
vn -2.073775 1.625603 5.259589
v -0.015126 0.020082 0.052653
vn -2.276293 3.979765 4.088720
v -0.018070 0.034711 0.040549
vn 5.624712 0.272451 2.625898
v 0.127329 0.017965 0.019311
vn -1.166003 1.999134 5.320960
v -0.005128 0.024063 0.054418
vn -1.261762 -2.089432 5.129004
v -0.007400 -0.023724 0.054148
vn -0.481809 -6.122355 -0.837480
v 0.053597 -0.051187 -0.031059
vn -0.160843 0.883511 -6.065998
v 0.086062 0.049497 -0.040907
vn -0.171329 2.998976 -4.604791
v 0.082371 0.072672 -0.036209
vn -2.590972 3.237681 -2.523861
v -0.028926 0.038945 -0.014661
vn 1.527686 -2.798068 -2.691883
v 0.109158 -0.051199 -0.038847
vn 4.045958 0.313470 -4.655767
v 0.117111 0.020645 -0.032890
vn 2.380504 -2.787436 -1.969175
v 0.122347 -0.051200 -0.027866
vn 2.937263 5.128547 1.069442
v 0.111398 0.072297 0.015605
vn -0.325473 6.071755 0.821379
v 0.065655 0.081334 0.013335
vn 3.555400 4.759507 -1.347875
v 0.113856 0.070434 -0.016021
vn 3.418572 3.587274 -3.218686
v 0.109980 0.068092 -0.027204
vn 1.896013 5.473866 -1.647339
v 0.100100 0.075228 -0.023901
vn 1.491954 3.039040 -4.400107
v 0.095384 0.070337 -0.035672
vn -0.227124 1.407400 5.877000
v 0.015051 0.024085 0.056206
vn 2.364250 2.892863 4.273295
v 0.102437 0.068088 0.033798
vn -0.422582 4.230733 3.973563
v 0.074318 0.074768 0.033919
vn 2.929147 -2.798622 -0.998230
v 0.129874 -0.051199 -0.014322
vn 3.093549 -2.809029 0.084305
v 0.132208 -0.051199 0.001350
vn -1.453601 5.365019 2.530404
v 0.062339 0.077814 0.024078
vn -4.378594 -1.091391 4.155382
v -0.039733 -0.010686 0.037406
vn -4.059096 0.473502 4.594374
v -0.035869 0.005669 0.042117
vn -4.511857 1.627249 3.776131
v -0.040368 0.014930 0.035457
vn -3.374648 2.351224 4.597079
v -0.027616 0.021411 0.043835
vn -2.599068 -0.922934 5.290724
v -0.022397 -0.011884 0.051059
vn -3.608074 -2.746017 4.026759
v -0.031783 -0.025374 0.038750
vn -3.294204 5.193498 0.600469
v -0.025173 0.040277 0.022046
vn 5.384868 0.300395 -2.979549
v 0.125861 0.020175 -0.022236
vn 2.083686 0.770847 -5.749584
v 0.103422 0.042110 -0.038909
vn 5.528326 0.882503 2.641132
v 0.124764 0.043403 0.019519
vn 4.817379 2.882167 1.848467
v 0.121380 0.063099 0.015205
vn 4.500692 1.407743 3.785371
v 0.118857 0.052366 0.026578
vn 0.950176 5.534415 -2.404369
v 0.086831 0.076754 -0.029051
vn -1.993801 5.723874 1.125511
v 0.055642 0.079453 0.012235
vn -2.774747 4.757258 2.379513
v -0.023225 0.039427 0.031264
vn 1.099955 5.582167 2.327170
v 0.088525 0.076758 0.027981
vn 6.074594 0.375172 0.852691
v 0.131421 0.021853 0.006249
vn -2.035776 -4.071915 3.993955
v -0.017132 -0.035457 0.040683
vn -4.216945 3.836597 1.632314
v -0.034979 0.031425 0.028510
vn 4.725591 0.856051 -3.862865
v 0.120110 0.042625 -0.027355
vn 2.824339 2.160687 -4.888400
v 0.103585 0.065560 -0.033878
vn -2.713496 0.500495 5.417905
v -0.023699 0.007574 0.050651
vn 6.073369 0.174557 -1.152815
v 0.131348 0.009396 -0.007998
vn 5.945920 0.993574 -1.042687
v 0.129079 0.045296 -0.006632
vn 5.542210 1.188770 -2.529233
v 0.124368 0.048727 -0.018195
vn 3.582539 3.442410 3.173052
v 0.110567 0.067759 0.026951
vn 5.917177 1.274521 1.018839
v 0.128215 0.049971 0.005706
vn 4.871309 2.926875 -1.782703
v 0.121277 0.063276 -0.015132
vn -1.195299 4.069796 -3.713951
v 0.070077 0.076146 -0.030948
vn 2.928581 0.156256 -5.484773
v 0.109491 0.010677 -0.038422
vn 3.223575 0.895810 5.212652
v 0.109808 0.046044 0.035077
vn 3.537898 0.993706 -4.994110
v 0.112939 0.045550 -0.033175
vn 4.480898 1.973782 -3.609418
v 0.117625 0.059065 -0.024898
# 102 vertices, 0 vertices normals

f 1//1 2//2 3//3
f 4//4 5//5 6//6
f 7//7 8//8 2//2
f 2//2 4//4 3//3
f 8//8 4//4 2//2
f 9//9 4//4 8//8
f 10//10 11//11 12//12
f 13//13 2//2 1//1
f 4//4 6//6 14//14
f 4//4 14//14 3//3
f 15//15 16//16 17//17
f 18//18 19//19 20//20
f 21//21 22//22 23//23
f 5//5 24//24 6//6
f 14//14 6//6 25//25
f 8//8 26//26 27//27
f 7//7 2//2 13//13
f 4//4 28//28 29//29
f 30//30 5//5 11//11
f 14//14 31//31 3//3
f 32//32 33//33 23//23
f 34//34 35//35 36//36
f 37//37 38//38 39//39
f 40//40 41//41 42//42
f 34//34 43//43 35//35
f 12//12 18//18 20//20
f 18//18 12//12 23//23
f 32//32 23//23 12//12
f 32//32 12//12 44//44
f 45//45 46//46 47//47
f 10//10 30//30 11//11
f 18//18 23//23 22//22
f 48//48 32//32 44//44
f 49//49 50//50 20//20
f 30//30 24//24 5//5
f 24//24 30//30 10//10
f 51//51 11//11 5//5
f 51//51 5//5 4//4
f 52//52 9//9 27//27
f 8//8 27//27 9//9
f 53//53 27//27 54//54
f 55//55 56//56 57//57
f 4//4 9//9 28//28
f 36//36 58//58 34//34
f 41//41 59//59 42//42
f 60//60 61//61 62//62
f 52//52 53//53 63//63
f 43//43 42//42 35//35
f 35//35 42//42 59//59
f 20//20 15//15 64//64
f 19//19 15//15 20//20
f 16//16 65//65 17//17
f 66//66 64//64 17//17
f 55//55 67//67 29//29
f 44//44 67//67 68//68
f 12//12 67//67 44//44
f 67//67 4//4 29//29
f 69//69 35//35 59//59
f 70//70 71//71 13//13
f 72//72 71//71 73//73
f 22//22 19//19 18//18
f 33//33 21//21 23//23
f 50//50 46//46 74//74
f 49//49 20//20 64//64
f 66//66 49//49 64//64
f 12//12 20//20 50//50
f 75//75 31//31 25//25
f 24//24 25//25 6//6
f 52//52 27//27 53//53
f 45//45 72//72 73//73
f 76//76 41//41 54//54
f 57//57 67//67 55//55
f 56//56 77//77 57//57
f 28//28 55//55 29//29
f 28//28 52//52 78//78
f 31//31 1//1 3//3
f 70//70 1//1 75//75
f 32//32 48//48 33//33
f 79//79 80//80 81//81
f 60//60 34//34 39//39
f 34//34 37//37 39//39
f 58//58 37//37 34//34
f 34//34 62//62 43//43
f 82//82 43//43 62//62
f 15//15 17//17 64//64
f 67//67 51//51 4//4
f 69//69 83//83 84//84
f 46//46 45//45 73//73
f 35//35 85//85 36//36
f 19//19 22//22 15//15
f 22//22 16//16 15//15
f 68//68 86//86 44//44
f 50//50 74//74 75//75
f 46//46 50//50 49//49
f 12//12 50//50 87//87
f 31//31 14//14 25//25
f 8//8 7//7 26//26
f 27//27 88//88 54//54
f 89//89 77//77 56//56
f 61//61 90//90 63//63
f 52//52 28//28 9//9
f 71//71 72//72 13//13
f 91//91 71//71 74//74
f 1//1 31//31 75//75
f 92//92 68//68 67//67
f 86//86 92//92 93//93
f 94//94 93//93 77//77
f 65//65 95//95 36//36
f 80//80 79//79 96//96
f 80//80 95//95 81//81
f 39//39 97//97 60//60
f 97//97 61//61 60//60
f 62//62 63//63 82//82
f 43//43 82//82 98//98
f 53//53 98//98 82//82
f 54//54 40//40 98//98
f 59//59 41//41 83//83
f 84//84 47//47 66//66
f 74//74 71//71 70//70
f 35//35 66//66 85//85
f 85//85 66//66 17//17
f 44//44 86//86 48//48
f 79//79 86//86 96//96
f 86//86 79//79 48//48
f 70//70 75//75 74//74
f 87//87 10//10 12//12
f 46//46 49//49 47//47
f 53//53 54//54 98//98
f 54//54 88//88 76//76
f 76//76 83//83 41//41
f 77//77 67//67 57//57
f 78//78 99//99 28//28
f 55//55 99//99 56//56
f 72//72 7//7 13//13
f 13//13 1//1 70//70
f 24//24 10//10 25//25
f 87//87 25//25 10//10
f 75//75 25//25 87//87
f 92//92 86//86 68//68
f 81//81 21//21 33//33
f 77//77 92//92 67//67
f 94//94 97//97 93//93
f 38//38 96//96 93//93
f 80//80 58//58 95//95
f 65//65 81//81 95//95
f 100//100 65//65 16//16
f 39//39 38//38 97//97
f 38//38 80//80 96//96
f 37//37 58//58 80//80
f 90//90 78//78 63//63
f 54//54 41//41 40//40
f 35//35 69//69 66//66
f 82//82 63//63 53//53
f 43//43 98//98 40//40
f 40//40 42//42 43//43
f 49//49 66//66 47//47
f 87//87 50//50 75//75
f 46//46 91//91 74//74
f 26//26 88//88 27//27
f 26//26 7//7 72//72
f 45//45 88//88 26//26
f 84//84 45//45 47//47
f 45//45 26//26 72//72
f 28//28 99//99 55//55
f 78//78 101//101 56//56
f 102//102 90//90 61//61
f 78//78 56//56 99//99
f 33//33 79//79 81//81
f 79//79 33//33 48//48
f 102//102 97//97 94//94
f 93//93 92//92 77//77
f 58//58 36//36 95//95
f 93//93 97//97 38//38
f 37//37 80//80 38//38
f 34//34 60//60 62//62
f 61//61 63//63 62//62
f 97//97 102//102 61//61
f 63//63 78//78 52//52
f 90//90 101//101 78//78
f 66//66 69//69 84//84
f 83//83 69//69 59//59
f 17//17 65//65 36//36
f 16//16 22//22 100//100
f 100//100 22//22 21//21
f 81//81 100//100 21//21
f 71//71 91//91 73//73
f 83//83 76//76 84//84
f 84//84 88//88 45//45
f 76//76 88//88 84//84
f 56//56 101//101 89//89
f 77//77 89//89 94//94
f 102//102 94//94 89//89
f 96//96 86//86 93//93
f 81//81 65//65 100//100
f 85//85 17//17 36//36
f 91//91 46//46 73//73
f 90//90 102//102 101//101
f 101//101 102//102 89//89
f 67//67 12//12 51//51
f 12//12 11//11 51//51
# 200 faces, 0 coords texture

# End of File
