####
#
# OBJ File Generated by Meshlab
#
####
# Object link2.obj
#
# Vertices: 152
# Faces: 300
#
####
vn 4.725031 1.047918 -2.261702
v 0.054780 0.008755 0.000695
vn 6.220481 0.184494 0.462313
v 0.054985 0.001797 0.060077
vn 3.097496 -2.879466 -0.239823
v 0.054936 -0.194003 -0.005000
vn 6.081766 1.106831 0.539549
v 0.054135 0.009444 0.062822
vn 3.393702 0.578593 -5.139605
v 0.031051 -0.126082 -0.045501
vn 3.723321 2.207573 -2.594669
v 0.047601 0.028033 0.000490
vn 5.651764 2.454834 0.502476
v 0.050244 0.022674 0.063238
vn 2.326289 0.723713 -5.669244
v 0.021205 -0.126588 -0.050810
vn 4.440600 0.414765 -4.307507
v 0.039946 -0.124494 -0.037926
vn 5.395961 0.207074 -3.061618
v 0.048413 -0.123261 -0.026532
vn -2.942869 -2.964696 -1.061901
v -0.051883 -0.194000 -0.018395
vn -5.588465 0.171757 -2.741062
v -0.050014 -0.121697 -0.023261
vn -2.632612 -2.906856 -1.672372
v -0.046670 -0.194000 -0.029425
vn -3.326592 2.624801 -2.667424
v -0.043963 0.033295 0.000490
vn -3.985103 4.665052 0.524659
v -0.036151 0.041648 0.064481
vn -2.326164 3.313703 -2.699396
v -0.032099 0.045000 0.000508
vn -1.564802 -1.827351 5.716336
v -0.015237 -0.017193 0.125084
vn -1.360739 -3.984071 2.686428
v -0.023760 -0.194000 0.049712
vn -0.569686 -4.064469 2.930785
v -0.010578 -0.194000 0.054149
vn -2.617369 -1.608835 5.387295
v -0.025466 -0.016198 0.121439
vn 3.136379 -1.678588 5.110157
v 0.030702 -0.016091 0.118495
vn 1.241582 -3.958196 2.743889
v 0.021837 -0.194000 0.050687
vn 2.107730 -3.731396 2.219402
v 0.036953 -0.194000 0.041087
vn 1.820503 5.881003 0.503404
v 0.016094 0.052763 0.064144
vn 2.030942 3.481408 -2.720788
v 0.028599 0.047274 0.000500
vn 0.972390 3.852366 -2.757775
v 0.013564 0.053444 0.000497
vn 3.151169 5.289883 0.560178
v 0.028720 0.047023 0.064773
vn 0.429456 0.916250 -6.071681
v 0.003512 -0.125580 -0.054882
vn 1.321657 0.831584 -5.964247
v 0.011452 -0.126129 -0.053787
vn -1.584574 0.790550 -5.866794
v -0.013871 -0.126413 -0.053340
vn 2.947547 2.977063 -2.743539
v 0.039076 0.038788 0.000497
vn -4.747022 -1.173215 3.771048
v -0.043936 -0.011797 0.108632
vn -5.216707 -0.318195 2.848644
v -0.046228 -0.003653 0.107627
vn -2.821583 -3.312117 1.305479
v -0.048742 -0.193999 0.025965
vn -5.055575 0.827829 -2.160522
v -0.054829 0.006423 0.000592
vn -6.070127 0.068809 -1.495645
v -0.053447 -0.118112 -0.013166
vn -3.084725 -2.928342 0.280347
v -0.055153 -0.194010 0.005101
vn -3.090592 -2.939104 -0.464639
v -0.054520 -0.194000 -0.008187
vn -3.980362 0.468165 -4.748649
v -0.035829 -0.125777 -0.041827
vn -4.168829 1.791218 -2.537947
v -0.051180 0.020557 0.000499
vn -0.476382 0.906195 -6.072382
v -0.003430 -0.125759 -0.054876
vn -1.283520 3.780096 -2.765837
v -0.017912 0.052124 0.000504
vn -2.422918 5.624965 0.521982
v -0.021417 0.050906 0.064564
vn -0.927042 6.101735 0.528067
v -0.007769 0.054505 0.064503
vn -0.171835 3.936481 -2.735716
v -0.002460 0.055220 0.000493
vn -5.755922 2.193153 0.451847
v -0.051227 0.020371 0.062750
vn 6.027294 0.081570 -1.599078
v 0.053404 -0.118713 -0.013523
vn 0.019014 -0.804018 6.165598
v 0.000752 -0.007417 0.129075
vn -0.391448 -1.753475 5.937605
v -0.003484 -0.016731 0.127099
vn 0.685690 -1.891172 5.873223
v 0.006265 -0.018241 0.126383
vn 0.320641 -4.056724 2.967756
v 0.005598 -0.194000 0.054903
vn 3.928027 -1.500394 4.604995
v 0.037916 -0.014736 0.113617
vn 5.264642 -0.224157 2.801817
v 0.046282 -0.003001 0.107483
vn 2.733036 -3.462152 1.478480
v 0.047780 -0.194000 0.027475
vn 3.059811 -3.065272 0.609050
v 0.053431 -0.194000 0.013614
vn 4.943216 -1.133931 3.472209
v 0.044607 -0.011733 0.107859
vn -0.992480 -0.100213 6.128420
v -0.010045 -0.001108 0.128719
vn -0.691062 0.768601 6.144684
v -0.006886 0.007743 0.128603
vn -1.599798 1.141286 5.884548
v -0.015039 0.011399 0.126577
vn -3.777400 -1.533944 4.690845
v -0.036657 -0.015210 0.114621
vn 4.999549 3.625356 0.527131
v 0.044597 0.032246 0.063990
vn 6.149678 0.176013 1.113524
v 0.051786 0.001630 0.081572
vn 5.828063 1.974953 1.103946
v 0.049448 0.017366 0.079018
vn 1.589732 -2.945872 -2.691386
v 0.028294 -0.194000 -0.047250
vn 2.591833 -2.928180 -1.741424
v 0.045818 -0.194000 -0.030588
vn 2.130172 -2.922385 -2.281696
v 0.037325 -0.194000 -0.040575
vn -6.137052 0.258842 1.122254
v -0.051781 0.002211 0.081707
vn -6.142806 0.587404 0.465956
v -0.054916 0.004632 0.061059
vn -2.147693 -3.718029 2.184786
v -0.037430 -0.194000 0.040666
vn -2.906130 0.647472 -5.392952
v -0.027680 -0.126212 -0.047668
vn -5.069833 3.519145 0.487689
v -0.045213 0.031449 0.063457
vn -4.702208 3.917059 1.203334
v -0.039594 0.033347 0.083142
vn -1.064748 6.029915 1.192104
v -0.008551 0.050903 0.084596
vn -2.256237 5.701572 1.235956
v -0.019788 0.047468 0.085111
vn -1.416360 5.208644 2.611027
v -0.013023 0.044806 0.107063
vn -3.085679 5.314378 1.206381
v -0.025218 0.044866 0.084745
vn -3.805636 4.816801 1.205361
v -0.031319 0.040953 0.083982
vn 0.405612 6.154130 0.528673
v 0.003379 0.055008 0.064440
vn 2.929470 -2.901726 -1.066039
v 0.051759 -0.194000 -0.019092
vn 1.961567 -1.755725 5.605305
v 0.019051 -0.017229 0.123856
vn -1.492110 -0.950455 5.937593
v -0.014125 -0.009581 0.127168
vn 3.116919 -0.887503 5.300641
v 0.029822 -0.008664 0.120929
vn 2.470170 -0.395071 5.656735
v 0.024075 -0.004086 0.124500
vn 0.439495 0.059171 6.185025
v 0.003973 0.000518 0.129489
vn -2.173360 -0.126672 5.808191
v -0.020886 -0.000462 0.125820
vn -0.747155 -2.895862 -3.026637
v -0.012976 -0.194000 -0.053589
vn 0.031262 -2.898015 -3.117022
v -0.000043 -0.194000 -0.055097
vn 4.137938 4.564186 0.610680
v 0.036488 0.041135 0.065520
vn -4.817035 0.345054 -3.918014
v -0.043060 -0.123826 -0.034323
vn 0.956729 1.308803 5.982125
v 0.009017 0.012684 0.127561
vn 0.233757 0.939266 6.148313
v 0.002612 0.008569 0.128877
vn 1.253636 -0.839411 6.019963
v 0.011859 -0.008311 0.127792
vn 1.406818 2.079190 5.653234
v 0.013767 0.020453 0.124378
vn 1.770698 0.483598 5.914632
v 0.017617 0.004251 0.126807
vn 2.642110 0.961580 5.532614
v 0.026031 0.009702 0.122739
vn 5.118808 0.742376 2.808959
v 0.045935 0.006738 0.107678
vn 4.060495 -0.575910 4.656322
v 0.039298 -0.005929 0.114605
vn 3.735785 0.345825 4.920561
v 0.036384 0.003278 0.117268
vn -2.636014 0.913998 5.553505
v -0.025557 0.007950 0.123264
vn -2.433267 2.215206 5.250010
v -0.023691 0.021526 0.120405
vn -3.301654 1.603463 5.023224
v -0.032303 0.015809 0.117600
vn -0.423981 1.779951 5.941128
v -0.004348 0.017106 0.126883
vn -1.466257 2.090243 5.667960
v -0.014422 0.019931 0.124302
vn 5.978439 1.244133 1.280230
v 0.048610 0.010152 0.093321
vn -5.413992 0.762877 2.482654
v -0.046252 0.006992 0.106752
vn -4.449616 0.561412 4.303246
v -0.042764 0.005394 0.111331
vn -1.502924 -2.873228 -2.725703
v -0.026749 -0.194000 -0.048290
vn 0.869828 -2.859740 -2.984978
v 0.016019 -0.194000 -0.052881
vn -5.986603 1.450034 1.044327
v -0.051425 0.013273 0.074757
vn -5.492122 2.704741 1.174761
v -0.046531 0.023048 0.082205
vn -4.289695 3.122002 2.685346
v -0.037476 0.027545 0.107331
vn -4.755739 2.273916 2.876902
v -0.042532 0.018274 0.107673
vn -2.721476 3.358628 4.473853
v -0.026673 0.032484 0.112352
vn -3.637148 3.916198 2.706301
v -0.031162 0.034397 0.107352
vn 0.221597 6.111922 1.238070
v 0.001970 0.051202 0.086691
vn -4.976602 1.710546 2.719842
v -0.044065 0.015443 0.107130
vn 0.046342 2.430383 5.695391
v 0.000310 0.023519 0.124821
vn 3.425192 1.404457 5.001828
v 0.033109 0.013721 0.117691
vn -3.144305 0.213445 5.369576
v -0.030280 0.002256 0.121284
vn -3.726753 0.774945 4.935166
v -0.036204 0.007314 0.116785
vn -3.134840 -0.907936 5.276075
v -0.031353 -0.008962 0.119999
vn -2.152427 -2.915431 -2.259058
v -0.038120 -0.194000 -0.039784
vn 5.367651 2.929856 1.276714
v 0.043851 0.023960 0.091848
vn 4.727734 3.896295 1.204044
v 0.039956 0.032570 0.084039
vn -2.064140 4.722277 2.978193
v -0.017877 0.042608 0.107975
vn -0.628448 4.481863 4.271495
v -0.005822 0.043059 0.110978
vn -0.954180 3.861586 4.780410
v -0.009527 0.037623 0.115319
vn -1.872835 3.364361 4.879839
v -0.017156 0.032361 0.117111
vn -2.769408 4.467742 2.779325
v -0.024455 0.039499 0.107471
vn -4.034374 1.711813 4.419932
v -0.038761 0.016625 0.112248
vn -3.318509 2.681666 4.516120
v -0.032079 0.025715 0.113308
vn 1.668550 2.990543 5.169370
v 0.016992 0.028742 0.119516
vn 0.321747 3.320172 5.208437
v 0.003126 0.032569 0.119968
vn -0.238569 5.354717 2.690934
v -0.002764 0.046319 0.107409
vn 1.388538 5.971230 1.225148
v 0.011449 0.050063 0.085647
vn 4.820854 2.125176 2.725475
v 0.042468 0.018754 0.107658
vn 4.173736 3.230520 2.774684
v 0.036581 0.028501 0.107512
vn 3.513460 2.368006 4.554164
v 0.034152 0.022474 0.113524
vn -3.930114 -0.333884 4.807208
v -0.037452 -0.003133 0.116357
vn 0.279268 4.197963 4.571071
v 0.002943 0.040497 0.113812
vn -1.121365 2.935024 5.353757
v -0.011792 0.028698 0.120959
vn 1.265408 4.060853 4.534836
v 0.012030 0.039453 0.113150
vn 2.108370 3.889017 4.391337
v 0.020436 0.037216 0.111937
vn 1.001479 5.216887 2.693108
v 0.008742 0.045676 0.107309
vn 2.899476 2.574472 4.888029
v 0.027754 0.025289 0.116309
vn 2.483608 1.943819 5.360803
v 0.024247 0.019117 0.120984
vn 4.100955 1.490262 4.460399
v 0.039396 0.015644 0.111980
vn 2.489132 5.578913 1.265722
v 0.020000 0.046744 0.088105
vn 3.057436 4.461995 2.596382
v 0.026041 0.038696 0.106945
vn 2.167525 4.902113 2.687992
v 0.019662 0.042100 0.107295
vn 2.635061 3.252942 4.584800
v 0.024906 0.031369 0.114376
vn 3.654020 3.907681 2.686038
v 0.031728 0.034030 0.107127
# 152 vertices, 0 vertices normals

f 1//1 2//2 3//3
f 1//1 4//4 2//2
f 5//5 6//6 1//1
f 6//6 7//7 1//1
f 5//5 8//8 6//6
f 9//9 1//1 10//10
f 11//11 12//12 13//13
f 14//14 15//15 16//16
f 17//17 18//18 19//19
f 20//20 18//18 17//17
f 21//21 22//22 23//23
f 24//24 25//25 26//26
f 25//25 24//24 27//27
f 28//28 25//25 29//29
f 28//28 26//26 25//25
f 16//16 30//30 14//14
f 8//8 31//31 6//6
f 29//29 31//31 8//8
f 29//29 25//25 31//31
f 7//7 4//4 1//1
f 5//5 1//1 9//9
f 32//32 33//33 34//34
f 35//35 12//12 36//36
f 37//37 35//35 38//38
f 39//39 35//35 40//40
f 16//16 41//41 30//30
f 42//42 41//41 16//16
f 16//16 43//43 42//42
f 44//44 42//42 43//43
f 44//44 45//45 42//42
f 46//46 40//40 35//35
f 3//3 47//47 1//1
f 48//48 49//49 50//50
f 49//49 51//51 50//50
f 49//49 19//19 51//51
f 52//52 21//21 23//23
f 53//53 54//54 55//55
f 53//53 56//56 54//54
f 52//52 23//23 56//56
f 57//57 58//58 59//59
f 18//18 20//20 60//60
f 28//28 45//45 26//26
f 7//7 6//6 61//61
f 2//2 4//4 62//62
f 4//4 7//7 63//63
f 8//8 5//5 64//64
f 9//9 65//65 66//66
f 10//10 65//65 9//9
f 66//66 5//5 9//9
f 33//33 67//67 37//37
f 67//67 68//68 37//37
f 36//36 11//11 38//38
f 32//32 69//69 60//60
f 36//36 12//12 11//11
f 38//38 35//35 36//36
f 68//68 35//35 37//37
f 70//70 39//39 40//40
f 15//15 71//71 72//72
f 41//41 42//42 45//45
f 41//41 45//45 28//28
f 73//73 43//43 74//74
f 73//73 74//74 75//75
f 76//76 43//43 15//15
f 15//15 77//77 76//76
f 43//43 16//16 15//15
f 78//78 26//26 45//45
f 78//78 24//24 26//26
f 79//79 47//47 3//3
f 1//1 47//47 10//10
f 80//80 51//51 22//22
f 80//80 50//50 51//51
f 81//81 49//49 48//48
f 82//82 83//83 80//80
f 21//21 80//80 22//22
f 56//56 23//23 54//54
f 55//55 3//3 2//2
f 2//2 62//62 55//55
f 84//84 57//57 48//48
f 57//57 81//81 48//48
f 33//33 37//37 34//34
f 85//85 57//57 59//59
f 69//69 18//18 60//60
f 86//86 41//41 87//87
f 53//53 55//55 62//62
f 31//31 61//61 6//6
f 61//61 31//31 88//88
f 31//31 25//25 88//88
f 32//32 34//34 69//69
f 35//35 39//39 89//89
f 14//14 71//71 15//15
f 44//44 78//78 45//45
f 79//79 10//10 47//47
f 90//90 91//91 84//84
f 49//49 17//17 19//19
f 92//92 48//48 50//50
f 49//49 81//81 17//17
f 93//93 94//94 95//95
f 80//80 21//21 82//82
f 96//96 97//97 53//53
f 96//96 98//98 97//97
f 99//99 100//100 101//101
f 81//81 57//57 85//85
f 102//102 103//103 59//59
f 90//90 94//94 93//93
f 85//85 59//59 99//99
f 41//41 28//28 87//87
f 62//62 96//96 53//53
f 62//62 104//104 96//96
f 5//5 66//66 64//64
f 65//65 10//10 79//79
f 105//105 33//33 106//106
f 67//67 33//33 105//105
f 30//30 70//70 14//14
f 70//70 40//40 14//14
f 79//79 107//107 86//86
f 66//66 65//65 79//79
f 79//79 19//19 18//18
f 23//23 22//22 79//79
f 79//79 108//108 64//64
f 79//79 55//55 54//54
f 79//79 22//22 51//51
f 79//79 51//51 19//19
f 79//79 54//54 23//23
f 79//79 86//86 87//87
f 79//79 64//64 66//66
f 87//87 108//108 79//79
f 79//79 3//3 55//55
f 109//109 110//110 46//46
f 71//71 40//40 46//46
f 40//40 71//71 14//14
f 110//110 72//72 71//71
f 111//111 110//110 112//112
f 110//110 71//71 46//46
f 107//107 70//70 30//30
f 76//76 74//74 43//43
f 111//111 113//113 114//114
f 43//43 73//73 44//44
f 115//115 44//44 73//73
f 116//116 109//109 105//105
f 68//68 109//109 46//46
f 68//68 46//46 35//35
f 102//102 91//91 117//117
f 48//48 92//92 84//84
f 94//94 90//90 84//84
f 94//94 83//83 95//95
f 95//95 98//98 118//118
f 80//80 83//83 92//92
f 97//97 52//52 56//56
f 84//84 58//58 57//57
f 84//84 91//91 58//58
f 119//119 99//99 101//101
f 120//120 119//119 101//101
f 58//58 102//102 59//59
f 117//117 90//90 93//93
f 91//91 90//90 117//117
f 117//117 103//103 102//102
f 85//85 121//121 81//81
f 28//28 108//108 87//87
f 108//108 28//28 29//29
f 41//41 86//86 30//30
f 89//89 12//12 35//35
f 39//39 122//122 89//89
f 7//7 123//123 63//63
f 88//88 124//124 61//61
f 4//4 63//63 104//104
f 104//104 62//62 4//4
f 64//64 108//108 8//8
f 108//108 29//29 8//8
f 116//116 105//105 106//106
f 105//105 109//109 67//67
f 38//38 122//122 107//107
f 79//79 38//38 107//107
f 38//38 13//13 122//122
f 38//38 11//11 13//13
f 38//38 34//34 37//37
f 38//38 69//69 34//34
f 18//18 69//69 38//38
f 38//38 79//79 18//18
f 122//122 39//39 107//107
f 110//110 109//109 116//116
f 75//75 74//74 125//125
f 126//126 75//75 125//125
f 127//127 126//126 125//125
f 113//113 128//128 125//125
f 113//113 125//125 129//129
f 111//111 112//112 130//130
f 131//131 111//111 130//130
f 100//100 128//128 113//113
f 113//113 131//131 100//100
f 113//113 111//111 131//131
f 111//111 72//72 110//110
f 44//44 115//115 78//78
f 68//68 67//67 109//109
f 125//125 128//128 127//127
f 132//132 133//133 93//93
f 126//126 134//134 75//75
f 135//135 78//78 115//115
f 135//135 24//24 78//78
f 134//134 115//115 73//73
f 136//136 137//137 138//138
f 95//95 83//83 98//98
f 92//92 50//50 80//80
f 21//21 52//52 97//97
f 97//97 82//82 21//21
f 101//101 131//131 130//130
f 103//103 100//100 59//59
f 106//106 33//33 139//139
f 120//120 101//101 130//130
f 58//58 91//91 102//102
f 126//126 127//127 140//140
f 140//140 127//127 133//133
f 141//141 117//117 133//133
f 117//117 141//141 103//103
f 121//121 60//60 20//20
f 89//89 122//122 13//13
f 89//89 13//13 12//12
f 27//27 88//88 25//25
f 121//121 139//139 60//60
f 39//39 70//70 107//107
f 77//77 129//129 76//76
f 74//74 76//76 129//129
f 74//74 129//129 125//125
f 114//114 129//129 77//77
f 77//77 15//15 72//72
f 127//127 128//128 141//141
f 94//94 92//92 83//83
f 94//94 84//84 92//92
f 142//142 132//132 143//143
f 142//142 133//133 132//132
f 144//144 140//140 142//142
f 135//135 115//115 144//144
f 145//145 146//146 118//118
f 118//118 138//138 145//145
f 95//95 118//118 146//146
f 93//93 95//95 146//146
f 136//136 138//138 147//147
f 53//53 97//97 56//56
f 97//97 98//98 82//82
f 82//82 98//98 83//83
f 112//112 110//110 116//116
f 106//106 139//139 120//120
f 99//99 59//59 100//100
f 100//100 141//141 128//128
f 141//141 133//133 127//127
f 20//20 81//81 121//121
f 20//20 17//17 81//81
f 148//148 149//149 27//27
f 124//124 123//123 61//61
f 7//7 61//61 123//123
f 60//60 139//139 32//32
f 139//139 33//33 32//32
f 107//107 30//30 86//86
f 129//129 114//114 113//113
f 72//72 114//114 77//77
f 72//72 111//111 114//114
f 140//140 134//134 126//126
f 134//134 73//73 75//75
f 150//150 144//144 142//142
f 150//150 142//142 143//143
f 150//150 149//149 148//148
f 136//136 123//123 137//137
f 151//151 143//143 132//132
f 124//124 137//137 123//123
f 151//151 138//138 137//137
f 106//106 112//112 116//116
f 141//141 100//100 103//103
f 120//120 139//139 119//119
f 121//121 119//119 139//139
f 119//119 121//121 85//85
f 99//99 119//119 85//85
f 117//117 93//93 133//133
f 63//63 136//136 104//104
f 123//123 136//136 63//63
f 134//134 140//140 144//144
f 115//115 134//134 144//144
f 136//136 96//96 104//104
f 145//145 138//138 151//151
f 132//132 93//93 146//146
f 152//152 137//137 124//124
f 96//96 136//136 147//147
f 147//147 138//138 118//118
f 106//106 130//130 112//112
f 130//130 106//106 120//120
f 101//101 100//100 131//131
f 142//142 140//140 133//133
f 88//88 149//149 152//152
f 88//88 27//27 149//149
f 24//24 148//148 27//27
f 152//152 151//151 137//137
f 150//150 143//143 149//149
f 148//148 24//24 135//135
f 144//144 150//150 148//148
f 132//132 145//145 151//151
f 132//132 146//146 145//145
f 152//152 124//124 88//88
f 98//98 96//96 147//147
f 98//98 147//147 118//118
f 143//143 151//151 149//149
f 151//151 152//152 149//149
f 148//148 135//135 144//144
# 300 faces, 0 coords texture

# End of File
